<svg xmlns="http://www.w3.org/2000/svg" version="1.1" xmlns:xlink="http://www.w3.org/1999/xlink" width="1000" height="1000"><g clip-path="url(#SvgjsClipPath1001)"><rect width="1000" height="1000" fill="#ffffff"></rect><g transform="matrix(3.5,0,0,3.5,150,150)"><svg xmlns="http://www.w3.org/2000/svg" version="1.1" xmlns:xlink="http://www.w3.org/1999/xlink" viewBox="0 0 200 200" width="200" height="200"><rect width="200" height="200" fill="url('#gradient')"></rect><defs><linearGradient id="gradient" gradientTransform="rotate(86 0.5 0.5)"><stop offset="0%" stop-color="#dee90b"></stop><stop offset="100%" stop-color="#d9e241"></stop></linearGradient><clipPath id="SvgjsClipPath1001"><rect width="1000" height="1000" x="0" y="0" rx="350" ry="350"></rect></clipPath></defs><g><g fill="#1b3855" transform="matrix(2.445025582717453,0,0,2.445025582717453,13.373055146552403,118.09553251087564)" stroke="#0e5278" stroke-width="0"><path d="M8.87 0L6.36-5.02L4.50-5.02L4.50 0L1.07 0L1.07-14.22L6.67-14.22Q9.20-14.22 10.63-13.10Q12.05-11.97 12.05-9.92L12.05-9.92Q12.05-8.44 11.45-7.46Q10.85-6.48 9.57-5.88L9.57-5.88L12.54-0.15L12.54 0L8.87 0ZM4.50-11.57L4.50-7.67L6.67-7.67Q7.65-7.67 8.14-8.18Q8.63-8.69 8.63-9.61Q8.63-10.53 8.13-11.05Q7.64-11.57 6.67-11.57L6.67-11.57L4.50-11.57ZM13.56-4.82L13.55-5.38Q13.55-6.96 14.17-8.20Q14.79-9.43 15.94-10.10Q17.09-10.76 18.64-10.76L18.64-10.76Q21.02-10.76 22.38-9.29Q23.75-7.82 23.75-5.29L23.75-5.29L23.75-5.18Q23.75-2.71 22.38-1.25Q21.01 0.20 18.66 0.20L18.66 0.20Q16.41 0.20 15.04-1.16Q13.67-2.51 13.56-4.82L13.56-4.82ZM16.86-5.77L16.85-5.18Q16.85-3.71 17.30-3.03Q17.76-2.34 18.66-2.34L18.66-2.34Q20.42-2.34 20.46-5.05L20.46-5.05L20.46-5.38Q20.46-8.22 18.64-8.22L18.64-8.22Q16.99-8.22 16.86-5.77L16.86-5.77ZM28.67-15L28.67 0L25.37 0L25.37-15L28.67-15ZM35.81 0.20L35.81 0.20Q33.38 0.20 31.88-1.25Q30.37-2.71 30.37-5.03L30.37-5.03L30.37-5.30Q30.37-6.92 30.97-8.16Q31.57-9.40 32.72-10.08Q33.88-10.76 35.46-10.76L35.46-10.76Q37.69-10.76 38.97-9.38Q40.26-8.00 40.26-5.53L40.26-5.53L40.26-4.25L33.72-4.25Q33.90-3.36 34.49-2.85Q35.09-2.34 36.04-2.34L36.04-2.34Q37.60-2.34 38.48-3.44L38.48-3.44L39.98-1.66Q39.37-0.81 38.24-0.31Q37.11 0.20 35.81 0.20ZM35.44-8.22L35.44-8.22Q33.99-8.22 33.72-6.31L33.72-6.31L37.04-6.31L37.04-6.56Q37.06-7.35 36.64-7.79Q36.22-8.22 35.44-8.22ZM43.62-3.19L43.62-3.19Q44.40-3.19 44.92-2.73Q45.44-2.27 45.44-1.54Q45.44-0.82 44.92-0.36Q44.40 0.11 43.62 0.11L43.62 0.11Q42.83 0.11 42.32-0.36Q41.81-0.83 41.81-1.54Q41.81-2.26 42.32-2.72Q42.83-3.19 43.62-3.19ZM56.74-8.30L56.74-5.66L51.21-5.66L51.21 0L47.78 0L47.78-14.22L57.29-14.22L57.29-11.57L51.21-11.57L51.21-8.30L56.74-8.30ZM62.04-10.57L62.04 0L58.74 0L58.74-10.57L62.04-10.57ZM58.54-13.29L58.54-13.29Q58.54-13.99 59.05-14.44Q59.56-14.89 60.37-14.89Q61.18-14.89 61.69-14.44Q62.20-13.99 62.20-13.29Q62.20-12.59 61.69-12.14Q61.18-11.69 60.37-11.69Q59.56-11.69 59.05-12.14Q58.54-12.59 58.54-13.29ZM64.61-13.19L67.90-13.19L67.90-10.57L69.64-10.57L69.64-8.28L67.90-8.28L67.90-3.45Q67.90-2.85 68.12-2.62Q68.33-2.38 68.96-2.38L68.96-2.38Q69.45-2.38 69.79-2.44L69.79-2.44L69.79-0.09Q68.90 0.20 67.93 0.20L67.93 0.20Q66.23 0.20 65.42-0.61Q64.61-1.41 64.61-3.04L64.61-3.04L64.61-8.28L63.26-8.28L63.26-10.57L64.61-10.57L64.61-13.19Z"></path></g></g></svg></g></g></svg>